<svg width="20" height="20" viewBox="0 0 20 20" fill="none" xmlns="http://www.w3.org/2000/svg">
<path d="M19.8256 3.969C19.756 3.88581 19.6691 3.81889 19.5709 3.77297C19.4727 3.72706 19.3655 3.70327 19.2571 3.70329H4.32174L3.86901 1.21653C3.80701 0.875213 3.62717 0.566484 3.36087 0.344167C3.09456 0.121851 2.75867 5.01374e-05 2.41177 0H0.740658C0.544224 0 0.355834 0.0780334 0.216934 0.216934C0.0780334 0.355834 0 0.544224 0 0.740658C0 0.937093 0.0780334 1.12548 0.216934 1.26438C0.355834 1.40328 0.544224 1.48132 0.740658 1.48132H2.40714L4.77354 14.4697C4.84325 14.8549 5.01348 15.2148 5.26701 15.5131C4.91709 15.8399 4.66453 16.2573 4.53733 16.7189C4.41013 17.1805 4.41326 17.6683 4.54637 18.1283C4.67949 18.5882 4.93739 19.0023 5.29147 19.3246C5.64556 19.6469 6.08199 19.8648 6.55238 19.9543C7.02277 20.0437 7.50873 20.0011 7.95638 19.8312C8.40404 19.6612 8.79588 19.3707 9.08847 18.9917C9.38107 18.6126 9.56297 18.16 9.61401 17.6839C9.66506 17.2078 9.58325 16.7269 9.37766 16.2945H13.5828C13.4171 16.6414 13.3313 17.021 13.3319 17.4055C13.3319 17.9182 13.4839 18.4194 13.7687 18.8457C14.0536 19.272 14.4584 19.6042 14.9321 19.8005C15.4058 19.9967 15.927 20.048 16.4299 19.948C16.9327 19.8479 17.3947 19.6011 17.7572 19.2385C18.1197 18.876 18.3666 18.4141 18.4667 17.9112C18.5667 17.4083 18.5153 16.8871 18.3191 16.4134C18.1229 15.9398 17.7907 15.5349 17.3644 15.2501C16.9381 14.9652 16.4369 14.8132 15.9242 14.8132H6.95941C6.78596 14.8131 6.61802 14.7522 6.48486 14.6411C6.35171 14.5299 6.26179 14.3756 6.23079 14.2049L5.9373 12.5912H16.6769C17.1972 12.5911 17.701 12.4084 18.1005 12.0749C18.5 11.7415 18.7697 11.2784 18.8627 10.7664L19.9885 4.57634C20.0076 4.46936 20.0029 4.35948 19.9747 4.25452C19.9465 4.14956 19.8956 4.05208 19.8256 3.969ZM8.14724 17.4055C8.14724 17.6252 8.08209 17.84 7.96001 18.0227C7.83793 18.2054 7.66442 18.3478 7.46141 18.4319C7.25841 18.516 7.03502 18.538 6.81951 18.4951C6.604 18.4522 6.40604 18.3464 6.25067 18.1911C6.09529 18.0357 5.98948 17.8377 5.94661 17.6222C5.90375 17.4067 5.92575 17.1833 6.00984 16.9803C6.09392 16.7773 6.23632 16.6038 6.41902 16.4817C6.60172 16.3596 6.81652 16.2945 7.03626 16.2945C7.33091 16.2945 7.61349 16.4115 7.82184 16.6199C8.03019 16.8282 8.14724 17.1108 8.14724 17.4055ZM17.0351 17.4055C17.0351 17.6252 16.97 17.84 16.8479 18.0227C16.7258 18.2054 16.5523 18.3478 16.3493 18.4319C16.1463 18.516 15.9229 18.538 15.7074 18.4951C15.4919 18.4522 15.2939 18.3464 15.1386 18.1911C14.9832 18.0357 14.8774 17.8377 14.8345 17.6222C14.7916 17.4067 14.8137 17.1833 14.8977 16.9803C14.9818 16.7773 15.1242 16.6038 15.3069 16.4817C15.4896 16.3596 15.7044 16.2945 15.9242 16.2945C16.2188 16.2945 16.5014 16.4115 16.7097 16.6199C16.9181 16.8282 17.0351 17.1108 17.0351 17.4055ZM17.4055 10.5016C17.3744 10.6727 17.2841 10.8275 17.1503 10.9387C17.0166 11.0499 16.848 11.1105 16.6741 11.1099H5.66789L4.59116 5.18461H18.3693L17.4055 10.5016Z" fill="#373737"/>
</svg>
