<svg width="74" height="74" viewBox="0 0 74 74" fill="none" xmlns="http://www.w3.org/2000/svg">
<path d="M66.25 72.0833L42.9167 48.75C40.8333 50.4167 38.4375 51.7361 35.7292 52.7083C33.0208 53.6806 30.1389 54.1667 27.0833 54.1667C19.5139 54.1667 13.1083 51.5444 7.86667 46.3C2.625 41.0556 0.00277778 34.65 0 27.0833C0 19.5139 2.62222 13.1083 7.86667 7.86667C13.1111 2.625 19.5167 0.00277778 27.0833 0C34.6528 0 41.0583 2.62222 46.3 7.86667C51.5417 13.1111 54.1639 19.5167 54.1667 27.0833C54.1667 30.1389 53.6806 33.0208 52.7083 35.7292C51.7361 38.4375 50.4167 40.8333 48.75 42.9167L72.1875 66.3542C72.9514 67.118 73.3333 68.0556 73.3333 69.1667C73.3333 70.2778 72.9167 71.25 72.0833 72.0833C71.3194 72.8472 70.3472 73.2292 69.1667 73.2292C67.9861 73.2292 67.0139 72.8472 66.25 72.0833ZM27.0833 45.8333C32.2917 45.8333 36.7194 44.0097 40.3667 40.3625C44.0139 36.7153 45.8361 32.2889 45.8333 27.0833C45.8333 21.875 44.0097 17.4472 40.3625 13.8C36.7153 10.1528 32.2889 8.33056 27.0833 8.33333C21.875 8.33333 17.4472 10.1569 13.8 13.8042C10.1528 17.4514 8.33056 21.8778 8.33333 27.0833C8.33333 32.2917 10.1569 36.7194 13.8042 40.3667C17.4514 44.0139 21.8778 45.8361 27.0833 45.8333Z" fill="white"/>
</svg>
