<svg width="200" height="54" viewBox="0 0 200 54" fill="none" xmlns="http://www.w3.org/2000/svg">
<path d="M5.57251 6.33673C6.79388 5.60203 8.07884 5.01428 9.42747 4.57346C10.8015 4.13264 12.1756 3.91224 13.5496 3.91224C14.9237 3.91224 16.2341 4.16937 17.4809 4.68366C18.7532 5.19794 19.8727 6.02447 20.8397 7.16326C21.8066 8.2653 22.5827 9.73468 23.1679 11.5714C23.7532 13.3714 24.0458 15.5755 24.0458 18.1837C24.0458 22.7387 23.6132 26.6327 22.7481 29.8653C21.883 33.0979 20.7124 35.7428 19.2366 37.8C17.7862 39.8572 16.0941 41.3632 14.1603 42.3184C12.2519 43.2735 10.2544 43.751 8.16793 43.751C6.74299 43.751 5.35622 43.5122 4.00762 43.0347C2.65902 42.5939 1.38676 41.9142 0.190826 40.9959L2.70991 34.3286C3.77861 35.1367 4.75825 35.6877 5.64884 35.9816C6.56487 36.2755 7.50635 36.4224 8.47327 36.4224C10.8397 36.4224 12.7608 35.5959 14.2366 33.9428C15.7124 32.2531 16.7811 30.0122 17.4427 27.2204H6.87022L8.12976 19.9469H18.2824V19.0102C18.2824 17.5775 18.1043 16.3653 17.7481 15.3735C17.4173 14.3816 16.9593 13.5918 16.374 13.0041C15.8143 12.4164 15.1654 11.9938 14.4275 11.7367C13.715 11.4796 12.9771 11.351 12.2137 11.351C11.145 11.351 10.0509 11.553 8.93128 11.9571C7.83716 12.3244 6.84477 12.7837 5.95419 13.3347L5.57251 6.33673ZM36.8178 20.7184C36.1053 24.5755 35.431 27.9 34.7949 30.6918C34.1587 33.4836 33.3953 35.8163 32.5048 37.6898C31.6142 39.5266 30.5073 40.9224 29.1842 41.8775C27.861 42.7959 26.1562 43.3286 24.0697 43.4755V36.6428C25.2147 36.5693 26.1689 36.1836 26.9322 35.4857C27.7211 34.7878 28.3699 33.851 28.8788 32.6755C29.5913 31.0591 30.1256 29.1306 30.4819 26.8898C30.8636 24.649 31.2325 22.3347 31.5888 19.9469L32.4666 13.9959H47.543L42.6956 42.9796H37.0086L40.7109 20.7184H36.8178ZM58.1288 30.0306C57.6963 30.0306 57.251 30.0673 56.793 30.1408C56.3604 30.2143 56.0042 30.3061 55.7243 30.4163L54.6556 37.0286C55.0118 37.1021 55.3807 37.1572 55.7624 37.1939C56.1441 37.2306 56.5258 37.249 56.9075 37.249C58.3833 37.249 59.4902 36.8817 60.2281 36.1469C60.9914 35.4122 61.3731 34.4021 61.3731 33.1163C61.3731 31.0591 60.2917 30.0306 58.1288 30.0306ZM52.7853 13.9959H58.4724L56.7548 24.3C57.849 24.0061 58.8668 23.8592 59.8082 23.8592C62.0729 23.8592 63.7904 24.6306 64.9609 26.1735C66.1569 27.6796 66.7548 29.8102 66.7548 32.5653C66.7548 34.1082 66.5385 35.5592 66.1059 36.9184C65.6734 38.2408 65.0118 39.3979 64.1212 40.3898C63.2561 41.3816 62.1492 42.1715 60.8006 42.7592C59.4775 43.3102 57.8998 43.5857 56.0678 43.5857C53.5996 43.5857 50.9533 43.0898 48.1288 42.0979L52.7853 13.9959ZM90.9183 7.21836C89.7733 7.5857 88.5771 7.82448 87.3305 7.93468C86.1091 8.04489 84.913 8.3204 83.7427 8.76121C82.5977 9.1653 81.516 9.89999 80.4985 10.9653C79.5061 12.0306 78.6794 13.702 78.0175 15.9796C79.3664 15.1715 80.7404 14.7673 82.1397 14.7673C83.0046 14.7673 83.8443 14.951 84.6588 15.3184C85.4985 15.6857 86.2366 16.2918 86.8725 17.1367C87.5084 17.9449 88.0175 19.0102 88.3992 20.3326C88.7809 21.6551 88.9717 23.2531 88.9717 25.1265C88.9717 28.0653 88.6664 30.6918 88.0557 33.0061C87.445 35.3204 86.6053 37.2857 85.5366 38.902C84.4931 40.4816 83.2717 41.6938 81.8725 42.5388C80.4985 43.3469 79.0481 43.751 77.5214 43.751C76.4275 43.751 75.4222 43.5306 74.5062 43.0898C73.6156 42.649 72.8523 41.951 72.2161 40.9959C71.58 40.0041 71.0838 38.7551 70.7275 37.249C70.3714 35.7428 70.1932 33.9244 70.1932 31.7939C70.1932 30.3612 70.2569 28.9102 70.384 27.4408C70.5367 25.9715 70.7275 24.5388 70.9566 23.1428C71.1856 21.7469 71.4273 20.4244 71.6817 19.1755C71.9362 17.8897 72.1779 16.751 72.4069 15.7592C73.3485 11.6816 74.9006 8.4306 77.0633 6.00611C79.2519 3.58162 82.1649 2.05713 85.8038 1.43264C86.6946 1.24897 87.5725 1.08366 88.4374 0.936724C89.3282 0.789786 90.2313 0.55101 91.1473 0.220398L90.9183 7.21836ZM80.6511 21.4347C79.9893 21.4347 79.2901 21.6 78.5519 21.9306C77.8137 22.2612 77.1015 22.6836 76.4145 23.1979C76.1601 24.5939 75.9439 25.9715 75.7657 27.3306C75.613 28.6531 75.5367 29.8469 75.5367 30.9122C75.5367 33.1163 75.7657 34.6592 76.2237 35.5408C76.7069 36.3857 77.4198 36.8082 78.3611 36.8082C78.9969 36.8082 79.6336 36.5693 80.2695 36.0918C80.9053 35.5775 81.4778 34.8796 81.987 33.9979C82.4962 33.0796 82.903 31.9776 83.2084 30.6918C83.5137 29.4061 83.6664 27.9734 83.6664 26.3939C83.6664 24.5571 83.374 23.2715 82.7885 22.5367C82.229 21.802 81.516 21.4347 80.6511 21.4347ZM99.8534 43.751C98.5053 43.751 97.3343 43.4571 96.342 42.8694C95.3496 42.2817 94.5229 41.4551 93.8611 40.3898C93.2252 39.3244 92.742 38.0755 92.4107 36.6428C92.0801 35.1735 91.9145 33.5571 91.9145 31.7939C91.9145 29.5898 92.1565 27.3857 92.6397 25.1816C93.1488 22.9775 93.887 20.9939 94.8534 19.2306C95.8206 17.4673 97.0038 16.0347 98.403 14.9326C99.803 13.7939 101.406 13.2245 103.212 13.2245C104.536 13.2245 105.693 13.5184 106.685 14.1061C107.704 14.6938 108.531 15.5204 109.166 16.5857C109.828 17.651 110.324 18.9184 110.655 20.3877C110.986 21.8204 111.151 23.4184 111.151 25.1816C111.151 27.3857 110.91 29.5898 110.426 31.7939C109.943 33.9979 109.231 35.9816 108.289 37.7449C107.347 39.5082 106.164 40.9592 104.739 42.0979C103.34 43.2 101.711 43.751 99.8534 43.751ZM102.678 20.1673C101.838 20.1673 101.101 20.5164 100.464 21.2143C99.8282 21.9122 99.2939 22.7938 98.8611 23.8592C98.429 24.9245 98.0977 26.1 97.8687 27.3857C97.6656 28.6346 97.5633 29.8286 97.5633 30.9673C97.5633 32.8408 97.7672 34.2919 98.174 35.3204C98.5817 36.3122 99.3191 36.8082 100.388 36.8082C101.227 36.8082 101.966 36.4591 102.602 35.7612C103.238 35.0633 103.773 34.1817 104.205 33.1163C104.637 32.051 104.956 30.8938 105.159 29.6449C105.388 28.3591 105.502 27.1469 105.502 26.0082C105.502 24.1347 105.299 22.702 104.892 21.7102C104.485 20.6817 103.747 20.1673 102.678 20.1673ZM119.366 36.5877C119.798 36.7346 120.333 36.8082 120.969 36.8082C121.961 36.8082 122.864 36.551 123.679 36.0367C124.493 35.4857 125.18 34.7327 125.74 33.7775C126.325 32.8224 126.77 31.6837 127.076 30.3612C127.406 29.0021 127.572 27.5143 127.572 25.8979C127.572 24.3184 127.33 22.9775 126.847 21.8755C126.363 20.7735 125.524 20.2224 124.327 20.2224C123.513 20.2224 122.75 20.3326 122.037 20.5531L119.366 36.5877ZM133.221 25.2918C133.221 27.9734 132.915 30.4347 132.305 32.6755C131.694 34.8796 130.841 36.7897 129.747 38.4061C128.679 40.0225 127.381 41.2898 125.854 42.2081C124.353 43.0898 122.711 43.5306 120.931 43.5306C120.066 43.5306 119.2 43.4204 118.335 43.2L116.618 53.1735H110.969L117.305 15.0428C118.322 14.602 119.48 14.2163 120.778 13.8857C122.101 13.5184 123.526 13.3347 125.053 13.3347C126.478 13.3347 127.699 13.6469 128.717 14.2714C129.76 14.8959 130.612 15.7592 131.274 16.8612C131.936 17.9266 132.419 19.1939 132.724 20.6633C133.055 22.0959 133.221 23.6388 133.221 25.2918ZM153.569 30.4714C153.213 32.5653 153.111 34.6776 153.263 36.8082C153.416 38.902 153.709 40.7755 154.141 42.4286L149.065 43.4755C148.912 43.0347 148.773 42.6123 148.645 42.2081C148.518 41.804 148.391 41.3449 148.263 40.8306C147.551 41.6755 146.763 42.3735 145.897 42.9245C145.032 43.4755 144.065 43.751 142.996 43.751C141.724 43.751 140.63 43.4388 139.714 42.8143C138.824 42.153 138.085 41.2898 137.5 40.2245C136.94 39.1224 136.534 37.8551 136.279 36.4224C136.024 34.9531 135.897 33.3918 135.897 31.7388C135.897 29.2041 136.202 26.8163 136.813 24.5755C137.45 22.3347 138.314 20.3877 139.408 18.7347C140.528 17.0449 141.839 15.7225 143.34 14.7673C144.841 13.8122 146.469 13.3347 148.225 13.3347C148.454 13.3347 148.849 13.3531 149.408 13.3898C149.994 13.4265 150.656 13.5184 151.393 13.6653C152.131 13.7755 152.908 13.9775 153.721 14.2714C154.536 14.5653 155.312 14.9693 156.05 15.4837L153.569 30.4714ZM149.599 20.3326C149.269 20.2591 148.963 20.204 148.683 20.1673C148.429 20.1306 148.111 20.1122 147.729 20.1122C146.864 20.1122 146.05 20.4244 145.286 21.049C144.549 21.6735 143.9 22.5 143.34 23.5286C142.78 24.5204 142.335 25.6775 142.004 27C141.698 28.3224 141.546 29.7 141.546 31.1326C141.546 32.8959 141.75 34.2919 142.156 35.3204C142.564 36.3489 143.314 36.8633 144.408 36.8633C144.994 36.8633 145.515 36.6979 145.973 36.3673C146.457 36.0367 146.966 35.4857 147.5 34.7143C147.551 33.7959 147.627 32.8408 147.729 31.849C147.856 30.8204 147.984 29.8837 148.111 29.0388L149.599 20.3326ZM179.443 7.21836C178.298 7.5857 177.102 7.82448 175.855 7.93468C174.634 8.04489 173.437 8.3204 172.267 8.76121C171.122 9.1653 170.04 9.89999 169.023 10.9653C168.031 12.0306 167.204 13.702 166.542 15.9796C167.891 15.1715 169.265 14.7673 170.664 14.7673C171.529 14.7673 172.369 14.951 173.183 15.3184C174.023 15.6857 174.761 16.2918 175.397 17.1367C176.033 17.9449 176.542 19.0102 176.924 20.3326C177.305 21.6551 177.496 23.2531 177.496 25.1265C177.496 28.0653 177.191 30.6918 176.58 33.0061C175.969 35.3204 175.13 37.2857 174.061 38.902C173.018 40.4816 171.796 41.6938 170.397 42.5388C169.023 43.3469 167.573 43.751 166.046 43.751C164.952 43.751 163.947 43.5306 163.031 43.0898C162.14 42.649 161.376 41.951 160.74 40.9959C160.105 40.0041 159.608 38.7551 159.252 37.249C158.895 35.7428 158.718 33.9244 158.718 31.7939C158.718 30.3612 158.781 28.9102 158.908 27.4408C159.061 25.9715 159.252 24.5388 159.481 23.1428C159.71 21.7469 159.952 20.4244 160.206 19.1755C160.46 17.8897 160.702 16.751 160.931 15.7592C161.873 11.6816 163.425 8.4306 165.588 6.00611C167.776 3.58162 170.689 2.05713 174.328 1.43264C175.219 1.24897 176.097 1.08366 176.962 0.936724C177.853 0.789786 178.756 0.55101 179.672 0.220398L179.443 7.21836ZM169.176 21.4347C168.514 21.4347 167.814 21.6 167.076 21.9306C166.338 22.2612 165.626 22.6836 164.939 23.1979C164.685 24.5939 164.468 25.9715 164.29 27.3306C164.137 28.6531 164.061 29.8469 164.061 30.9122C164.061 33.1163 164.29 34.6592 164.748 35.5408C165.231 36.3857 165.944 36.8082 166.885 36.8082C167.521 36.8082 168.158 36.5693 168.794 36.0918C169.43 35.5775 170.002 34.8796 170.511 33.9979C171.021 33.0796 171.427 31.9776 171.733 30.6918C172.038 29.4061 172.191 27.9734 172.191 26.3939C172.191 24.5571 171.898 23.2715 171.313 22.5367C170.753 21.802 170.04 21.4347 169.176 21.4347ZM188.378 43.751C187.029 43.751 185.859 43.4571 184.866 42.8694C183.874 42.2817 183.047 41.4551 182.385 40.3898C181.75 39.3244 181.266 38.0755 180.935 36.6428C180.605 35.1735 180.439 33.5571 180.439 31.7939C180.439 29.5898 180.681 27.3857 181.164 25.1816C181.673 22.9775 182.411 20.9939 183.378 19.2306C184.345 17.4673 185.528 16.0347 186.927 14.9326C188.327 13.7939 189.93 13.2245 191.737 13.2245C193.06 13.2245 194.218 13.5184 195.21 14.1061C196.227 14.6938 197.055 15.5204 197.691 16.5857C198.353 17.651 198.849 18.9184 199.179 20.3877C199.51 21.8204 199.676 23.4184 199.676 25.1816C199.676 27.3857 199.434 29.5898 198.95 31.7939C198.467 33.9979 197.754 35.9816 196.813 37.7449C195.872 39.5082 194.689 40.9592 193.263 42.0979C191.864 43.2 190.235 43.751 188.378 43.751ZM191.202 20.1673C190.363 20.1673 189.624 20.5164 188.989 21.2143C188.353 21.9122 187.818 22.7938 187.385 23.8592C186.953 24.9245 186.622 26.1 186.393 27.3857C186.189 28.6346 186.088 29.8286 186.088 30.9673C186.088 32.8408 186.292 34.2919 186.698 35.3204C187.105 36.3122 187.844 36.8082 188.912 36.8082C189.752 36.8082 190.49 36.4591 191.126 35.7612C191.762 35.0633 192.296 34.1817 192.729 33.1163C193.162 32.051 193.479 30.8938 193.683 29.6449C193.912 28.3591 194.027 27.1469 194.027 26.0082C194.027 24.1347 193.823 22.702 193.416 21.7102C193.009 20.6817 192.271 20.1673 191.202 20.1673Z" fill="#CB0000"/>
</svg>
